<svg xmlns="http://www.w3.org/2000/svg" viewBox="0 0 136 108"><rect x="41" y="4" width="11" height="24" rx="5.5" fill="#F5E9D6"/><rect x="84" y="4" width="11" height="24" rx="5.5" fill="#F5E9D6"/><ellipse cx="20" cy="45" rx="19" ry="10" fill="#77EDD7"/><ellipse cx="18" cy="45" rx="10" ry="4.6" fill="#FFB7C9"/><ellipse cx="116" cy="45" rx="19" ry="10" fill="#77EDD7"/><ellipse cx="118" cy="45" rx="10" ry="4.6" fill="#FFB7C9"/><rect x="18" y="20" width="100" height="84" rx="30" fill="#77EDD7"/><clipPath id="f"><rect x="31" y="33" width="74" height="58" rx="17"/></clipPath><rect x="31" y="33" width="74" height="58" rx="17" fill="#0E1A22"/><g clip-path="url(#f)"><circle cx="33.5" cy="35.5" r="1.25" fill="#1F2E38"/><circle cx="37.5" cy="35.5" r="1.25" fill="#1F2E38"/><circle cx="41.5" cy="35.5" r="1.25" fill="#1F2E38"/><circle cx="45.5" cy="35.5" r="1.25" fill="#1F2E38"/><circle cx="49.5" cy="35.5" r="1.25" fill="#1F2E38"/><circle cx="53.5" cy="35.5" r="1.25" fill="#1F2E38"/><circle cx="57.5" cy="35.5" r="1.25" fill="#1F2E38"/><circle cx="61.5" cy="35.5" r="1.25" fill="#1F2E38"/><circle cx="65.5" cy="35.5" r="1.25" fill="#1F2E38"/><circle cx="69.5" cy="35.5" r="1.25" fill="#1F2E38"/><circle cx="73.5" cy="35.5" r="1.25" fill="#1F2E38"/><circle cx="77.5" cy="35.5" r="1.25" fill="#1F2E38"/><circle cx="81.5" cy="35.5" r="1.25" fill="#1F2E38"/><circle cx="85.5" cy="35.5" r="1.25" fill="#1F2E38"/><circle cx="89.5" cy="35.5" r="1.25" fill="#1F2E38"/><circle cx="93.5" cy="35.5" r="1.25" fill="#1F2E38"/><circle cx="97.5" cy="35.5" r="1.25" fill="#1F2E38"/><circle cx="101.5" cy="35.5" r="1.25" fill="#1F2E38"/><circle cx="105.5" cy="35.5" r="1.25" fill="#1F2E38"/><circle cx="33.5" cy="39.5" r="1.25" fill="#1F2E38"/><circle cx="37.5" cy="39.5" r="1.25" fill="#1F2E38"/><circle cx="41.5" cy="39.5" r="1.25" fill="#1F2E38"/><circle cx="45.5" cy="39.5" r="1.25" fill="#1F2E38"/><circle cx="49.5" cy="39.5" r="1.25" fill="#1F2E38"/><circle cx="53.5" cy="39.5" r="1.25" fill="#1F2E38"/><circle cx="57.5" cy="39.5" r="1.25" fill="#1F2E38"/><circle cx="61.5" cy="39.5" r="1.25" fill="#1F2E38"/><circle cx="65.5" cy="39.5" r="1.25" fill="#1F2E38"/><circle cx="69.5" cy="39.5" r="1.25" fill="#1F2E38"/><circle cx="73.5" cy="39.5" r="1.25" fill="#1F2E38"/><circle cx="77.5" cy="39.5" r="1.25" fill="#1F2E38"/><circle cx="81.5" cy="39.5" r="1.25" fill="#1F2E38"/><circle cx="85.5" cy="39.5" r="1.25" fill="#1F2E38"/><circle cx="89.5" cy="39.5" r="1.25" fill="#1F2E38"/><circle cx="93.5" cy="39.5" r="1.25" fill="#1F2E38"/><circle cx="97.5" cy="39.5" r="1.25" fill="#1F2E38"/><circle cx="101.5" cy="39.5" r="1.25" fill="#1F2E38"/><circle cx="105.5" cy="39.5" r="1.25" fill="#1F2E38"/><circle cx="33.5" cy="43.5" r="1.25" fill="#1F2E38"/><circle cx="37.5" cy="43.5" r="1.25" fill="#1F2E38"/><circle cx="41.5" cy="43.5" r="1.25" fill="#1F2E38"/><circle cx="45.5" cy="43.5" r="1.25" fill="#1F2E38"/><circle cx="49.5" cy="43.5" r="1.25" fill="#1F2E38"/><circle cx="53.5" cy="43.5" r="1.25" fill="#1F2E38"/><circle cx="57.5" cy="43.5" r="1.25" fill="#1F2E38"/><circle cx="61.5" cy="43.5" r="1.25" fill="#1F2E38"/><circle cx="65.5" cy="43.5" r="1.25" fill="#1F2E38"/><circle cx="69.5" cy="43.5" r="1.25" fill="#1F2E38"/><circle cx="73.5" cy="43.5" r="1.25" fill="#1F2E38"/><circle cx="77.5" cy="43.5" r="1.25" fill="#1F2E38"/><circle cx="81.5" cy="43.5" r="1.25" fill="#1F2E38"/><circle cx="85.5" cy="43.5" r="1.25" fill="#1F2E38"/><circle cx="89.5" cy="43.5" r="1.25" fill="#1F2E38"/><circle cx="93.5" cy="43.5" r="1.25" fill="#1F2E38"/><circle cx="97.5" cy="43.5" r="1.25" fill="#1F2E38"/><circle cx="101.5" cy="43.5" r="1.25" fill="#1F2E38"/><circle cx="105.5" cy="43.5" r="1.25" fill="#1F2E38"/><circle cx="33.5" cy="47.5" r="1.25" fill="#1F2E38"/><circle cx="37.5" cy="47.5" r="1.25" fill="#1F2E38"/><circle cx="41.5" cy="47.5" r="1.25" fill="#1F2E38"/><circle cx="45.5" cy="47.5" r="1.25" fill="#1F2E38"/><circle cx="49.5" cy="47.5" r="1.25" fill="#1F2E38"/><circle cx="53.5" cy="47.5" r="1.25" fill="#1F2E38"/><circle cx="57.5" cy="47.5" r="1.25" fill="#1F2E38"/><circle cx="61.5" cy="47.5" r="1.25" fill="#1F2E38"/><circle cx="65.5" cy="47.5" r="1.25" fill="#1F2E38"/><circle cx="69.5" cy="47.5" r="1.25" fill="#1F2E38"/><circle cx="73.5" cy="47.5" r="1.25" fill="#1F2E38"/><circle cx="77.5" cy="47.5" r="1.25" fill="#1F2E38"/><circle cx="81.5" cy="47.5" r="1.25" fill="#1F2E38"/><circle cx="85.5" cy="47.5" r="1.25" fill="#1F2E38"/><circle cx="89.5" cy="47.5" r="1.25" fill="#1F2E38"/><circle cx="93.5" cy="47.5" r="1.25" fill="#1F2E38"/><circle cx="97.5" cy="47.5" r="1.25" fill="#1F2E38"/><circle cx="101.5" cy="47.5" r="1.25" fill="#1F2E38"/><circle cx="105.5" cy="47.5" r="1.25" fill="#1F2E38"/><circle cx="33.5" cy="51.5" r="1.25" fill="#1F2E38"/><circle cx="37.5" cy="51.5" r="1.25" fill="#1F2E38"/><circle cx="41.5" cy="51.5" r="1.25" fill="#1F2E38"/><circle cx="45.5" cy="51.5" r="1.25" fill="#1F2E38"/><circle cx="49.5" cy="51.5" r="1.25" fill="#1F2E38"/><circle cx="53.5" cy="51.5" r="1.25" fill="#1F2E38"/><circle cx="57.5" cy="51.5" r="1.25" fill="#1F2E38"/><circle cx="61.5" cy="51.5" r="1.25" fill="#1F2E38"/><circle cx="65.5" cy="51.5" r="1.25" fill="#1F2E38"/><circle cx="69.5" cy="51.5" r="1.25" fill="#1F2E38"/><circle cx="73.5" cy="51.5" r="1.25" fill="#1F2E38"/><circle cx="77.5" cy="51.5" r="1.25" fill="#1F2E38"/><circle cx="81.5" cy="51.5" r="1.25" fill="#1F2E38"/><circle cx="85.5" cy="51.5" r="1.25" fill="#1F2E38"/><circle cx="89.5" cy="51.5" r="1.25" fill="#1F2E38"/><circle cx="93.5" cy="51.5" r="1.25" fill="#1F2E38"/><circle cx="97.5" cy="51.5" r="1.25" fill="#1F2E38"/><circle cx="101.5" cy="51.5" r="1.25" fill="#1F2E38"/><circle cx="105.5" cy="51.5" r="1.25" fill="#1F2E38"/><circle cx="33.5" cy="55.5" r="1.25" fill="#1F2E38"/><circle cx="37.5" cy="55.5" r="1.25" fill="#1F2E38"/><circle cx="41.5" cy="55.5" r="1.25" fill="#1F2E38"/><circle cx="45.5" cy="55.5" r="1.25" fill="#1F2E38"/><circle cx="49.5" cy="55.5" r="1.25" fill="#1F2E38"/><circle cx="53.5" cy="55.5" r="1.25" fill="#1F2E38"/><circle cx="57.5" cy="55.5" r="1.25" fill="#1F2E38"/><circle cx="61.5" cy="55.5" r="1.25" fill="#1F2E38"/><circle cx="65.5" cy="55.5" r="1.25" fill="#1F2E38"/><circle cx="69.5" cy="55.5" r="1.25" fill="#1F2E38"/><circle cx="73.5" cy="55.5" r="1.25" fill="#1F2E38"/><circle cx="77.5" cy="55.5" r="1.25" fill="#1F2E38"/><circle cx="81.5" cy="55.5" r="1.25" fill="#1F2E38"/><circle cx="85.5" cy="55.5" r="1.25" fill="#1F2E38"/><circle cx="89.5" cy="55.5" r="1.25" fill="#1F2E38"/><circle cx="93.5" cy="55.5" r="1.25" fill="#1F2E38"/><circle cx="97.5" cy="55.5" r="1.25" fill="#1F2E38"/><circle cx="101.5" cy="55.5" r="1.25" fill="#1F2E38"/><circle cx="105.5" cy="55.5" r="1.25" fill="#1F2E38"/><circle cx="33.5" cy="59.5" r="1.25" fill="#1F2E38"/><circle cx="37.5" cy="59.5" r="1.25" fill="#1F2E38"/><circle cx="41.5" cy="59.5" r="1.25" fill="#1F2E38"/><circle cx="45.5" cy="59.5" r="1.25" fill="#1F2E38"/><circle cx="49.5" cy="59.5" r="1.25" fill="#1F2E38"/><circle cx="53.5" cy="59.5" r="1.25" fill="#1F2E38"/><circle cx="57.5" cy="59.5" r="1.25" fill="#1F2E38"/><circle cx="61.5" cy="59.5" r="1.25" fill="#1F2E38"/><circle cx="65.5" cy="59.5" r="1.25" fill="#1F2E38"/><circle cx="69.5" cy="59.5" r="1.25" fill="#1F2E38"/><circle cx="73.5" cy="59.5" r="1.25" fill="#1F2E38"/><circle cx="77.5" cy="59.5" r="1.25" fill="#1F2E38"/><circle cx="81.5" cy="59.5" r="1.25" fill="#1F2E38"/><circle cx="85.5" cy="59.5" r="1.25" fill="#1F2E38"/><circle cx="89.5" cy="59.5" r="1.25" fill="#1F2E38"/><circle cx="93.5" cy="59.5" r="1.25" fill="#1F2E38"/><circle cx="97.5" cy="59.5" r="1.25" fill="#1F2E38"/><circle cx="101.5" cy="59.5" r="1.25" fill="#1F2E38"/><circle cx="105.5" cy="59.5" r="1.25" fill="#1F2E38"/><circle cx="33.5" cy="63.5" r="1.25" fill="#1F2E38"/><circle cx="37.5" cy="63.5" r="1.25" fill="#1F2E38"/><circle cx="41.5" cy="63.5" r="1.25" fill="#1F2E38"/><circle cx="45.5" cy="63.5" r="1.25" fill="#1F2E38"/><circle cx="49.5" cy="63.5" r="1.25" fill="#1F2E38"/><circle cx="53.5" cy="63.5" r="1.25" fill="#1F2E38"/><circle cx="57.5" cy="63.5" r="1.25" fill="#1F2E38"/><circle cx="61.5" cy="63.5" r="1.25" fill="#1F2E38"/><circle cx="65.5" cy="63.5" r="1.25" fill="#1F2E38"/><circle cx="69.5" cy="63.5" r="1.25" fill="#1F2E38"/><circle cx="73.5" cy="63.5" r="1.25" fill="#1F2E38"/><circle cx="77.5" cy="63.5" r="1.25" fill="#1F2E38"/><circle cx="81.5" cy="63.5" r="1.25" fill="#1F2E38"/><circle cx="85.5" cy="63.5" r="1.25" fill="#1F2E38"/><circle cx="89.5" cy="63.5" r="1.25" fill="#1F2E38"/><circle cx="93.5" cy="63.5" r="1.25" fill="#1F2E38"/><circle cx="97.5" cy="63.5" r="1.25" fill="#1F2E38"/><circle cx="101.5" cy="63.5" r="1.25" fill="#1F2E38"/><circle cx="105.5" cy="63.5" r="1.25" fill="#1F2E38"/><circle cx="33.5" cy="67.5" r="1.25" fill="#1F2E38"/><circle cx="37.5" cy="67.5" r="1.25" fill="#1F2E38"/><circle cx="41.5" cy="67.5" r="1.25" fill="#1F2E38"/><circle cx="45.5" cy="67.5" r="1.25" fill="#1F2E38"/><circle cx="49.5" cy="67.5" r="1.25" fill="#1F2E38"/><circle cx="53.5" cy="67.5" r="1.25" fill="#1F2E38"/><circle cx="57.5" cy="67.5" r="1.25" fill="#1F2E38"/><circle cx="61.5" cy="67.5" r="1.25" fill="#1F2E38"/><circle cx="65.5" cy="67.5" r="1.25" fill="#1F2E38"/><circle cx="69.5" cy="67.5" r="1.25" fill="#1F2E38"/><circle cx="73.5" cy="67.5" r="1.25" fill="#1F2E38"/><circle cx="77.5" cy="67.5" r="1.25" fill="#1F2E38"/><circle cx="81.5" cy="67.5" r="1.25" fill="#1F2E38"/><circle cx="85.5" cy="67.5" r="1.25" fill="#1F2E38"/><circle cx="89.5" cy="67.5" r="1.25" fill="#1F2E38"/><circle cx="93.5" cy="67.5" r="1.25" fill="#1F2E38"/><circle cx="97.5" cy="67.5" r="1.25" fill="#1F2E38"/><circle cx="101.5" cy="67.5" r="1.25" fill="#1F2E38"/><circle cx="105.5" cy="67.5" r="1.25" fill="#1F2E38"/><circle cx="33.5" cy="71.5" r="1.25" fill="#1F2E38"/><circle cx="37.5" cy="71.5" r="1.25" fill="#1F2E38"/><circle cx="41.5" cy="71.5" r="1.25" fill="#1F2E38"/><circle cx="45.5" cy="71.5" r="1.25" fill="#1F2E38"/><circle cx="49.5" cy="71.5" r="1.75" fill="#FFB7C9"/><circle cx="53.5" cy="71.5" r="1.75" fill="#FFB7C9"/><circle cx="57.5" cy="71.5" r="1.75" fill="#FFB7C9"/><circle cx="61.5" cy="71.5" r="1.75" fill="#FFB7C9"/><circle cx="65.5" cy="71.5" r="1.75" fill="#FFB7C9"/><circle cx="69.5" cy="71.5" r="1.75" fill="#FFB7C9"/><circle cx="73.5" cy="71.5" r="1.75" fill="#FFB7C9"/><circle cx="77.5" cy="71.5" r="1.75" fill="#FFB7C9"/><circle cx="81.5" cy="71.5" r="1.75" fill="#FFB7C9"/><circle cx="85.5" cy="71.5" r="1.75" fill="#FFB7C9"/><circle cx="89.5" cy="71.5" r="1.25" fill="#1F2E38"/><circle cx="93.5" cy="71.5" r="1.25" fill="#1F2E38"/><circle cx="97.5" cy="71.5" r="1.25" fill="#1F2E38"/><circle cx="101.5" cy="71.5" r="1.25" fill="#1F2E38"/><circle cx="105.5" cy="71.5" r="1.25" fill="#1F2E38"/><circle cx="33.5" cy="75.5" r="1.25" fill="#1F2E38"/><circle cx="37.5" cy="75.5" r="1.25" fill="#1F2E38"/><circle cx="41.5" cy="75.5" r="1.25" fill="#1F2E38"/><circle cx="45.5" cy="75.5" r="1.25" fill="#1F2E38"/><circle cx="49.5" cy="75.5" r="1.75" fill="#FFB7C9"/><circle cx="53.5" cy="75.5" r="1.75" fill="#FFB7C9"/><circle cx="57.5" cy="75.5" r="1.75" fill="#FFB7C9"/><circle cx="61.5" cy="75.5" r="1.75" fill="#FFB7C9"/><circle cx="65.5" cy="75.5" r="1.75" fill="#FFB7C9"/><circle cx="69.5" cy="75.5" r="1.75" fill="#FFB7C9"/><circle cx="73.5" cy="75.5" r="1.75" fill="#FFB7C9"/><circle cx="77.5" cy="75.5" r="1.75" fill="#FFB7C9"/><circle cx="81.5" cy="75.5" r="1.75" fill="#FFB7C9"/><circle cx="85.5" cy="75.5" r="1.75" fill="#FFB7C9"/><circle cx="89.5" cy="75.5" r="1.75" fill="#FFB7C9"/><circle cx="93.5" cy="75.5" r="1.25" fill="#1F2E38"/><circle cx="97.5" cy="75.5" r="1.25" fill="#1F2E38"/><circle cx="101.5" cy="75.5" r="1.25" fill="#1F2E38"/><circle cx="105.5" cy="75.5" r="1.25" fill="#1F2E38"/><circle cx="33.5" cy="79.5" r="1.25" fill="#1F2E38"/><circle cx="37.5" cy="79.5" r="1.25" fill="#1F2E38"/><circle cx="41.5" cy="79.5" r="1.25" fill="#1F2E38"/><circle cx="45.5" cy="79.5" r="1.25" fill="#1F2E38"/><circle cx="49.5" cy="79.5" r="1.75" fill="#FFB7C9"/><circle cx="53.5" cy="79.5" r="1.75" fill="#FFB7C9"/><circle cx="57.5" cy="79.5" r="1.75" fill="#FFB7C9"/><circle cx="61.5" cy="79.5" r="1.75" fill="#FFB7C9"/><circle cx="65.5" cy="79.5" r="1.75" fill="#FFB7C9"/><circle cx="69.5" cy="79.5" r="1.75" fill="#FFB7C9"/><circle cx="73.5" cy="79.5" r="1.75" fill="#FFB7C9"/><circle cx="77.5" cy="79.5" r="1.75" fill="#FFB7C9"/><circle cx="81.5" cy="79.5" r="1.75" fill="#FFB7C9"/><circle cx="85.5" cy="79.5" r="1.75" fill="#FFB7C9"/><circle cx="89.5" cy="79.5" r="1.75" fill="#FFB7C9"/><circle cx="93.5" cy="79.5" r="1.25" fill="#1F2E38"/><circle cx="97.5" cy="79.5" r="1.25" fill="#1F2E38"/><circle cx="101.5" cy="79.5" r="1.25" fill="#1F2E38"/><circle cx="105.5" cy="79.5" r="1.25" fill="#1F2E38"/><circle cx="33.5" cy="83.5" r="1.25" fill="#1F2E38"/><circle cx="37.5" cy="83.5" r="1.25" fill="#1F2E38"/><circle cx="41.5" cy="83.5" r="1.25" fill="#1F2E38"/><circle cx="45.5" cy="83.5" r="1.25" fill="#1F2E38"/><circle cx="49.5" cy="83.5" r="1.75" fill="#FFB7C9"/><circle cx="53.5" cy="83.5" r="1.75" fill="#FFB7C9"/><circle cx="57.5" cy="83.5" r="1.75" fill="#FFB7C9"/><circle cx="61.5" cy="83.5" r="1.75" fill="#FFB7C9"/><circle cx="65.5" cy="83.5" r="1.75" fill="#FFB7C9"/><circle cx="69.5" cy="83.5" r="1.75" fill="#FFB7C9"/><circle cx="73.5" cy="83.5" r="1.75" fill="#FFB7C9"/><circle cx="77.5" cy="83.5" r="1.75" fill="#FFB7C9"/><circle cx="81.5" cy="83.5" r="1.75" fill="#FFB7C9"/><circle cx="85.5" cy="83.5" r="1.75" fill="#FFB7C9"/><circle cx="89.5" cy="83.5" r="1.25" fill="#1F2E38"/><circle cx="93.5" cy="83.5" r="1.25" fill="#1F2E38"/><circle cx="97.5" cy="83.5" r="1.25" fill="#1F2E38"/><circle cx="101.5" cy="83.5" r="1.25" fill="#1F2E38"/><circle cx="105.5" cy="83.5" r="1.25" fill="#1F2E38"/><circle cx="33.5" cy="87.5" r="1.25" fill="#1F2E38"/><circle cx="37.5" cy="87.5" r="1.25" fill="#1F2E38"/><circle cx="41.5" cy="87.5" r="1.25" fill="#1F2E38"/><circle cx="45.5" cy="87.5" r="1.25" fill="#1F2E38"/><circle cx="49.5" cy="87.5" r="1.25" fill="#1F2E38"/><circle cx="53.5" cy="87.5" r="1.25" fill="#1F2E38"/><circle cx="57.5" cy="87.5" r="1.25" fill="#1F2E38"/><circle cx="61.5" cy="87.5" r="1.25" fill="#1F2E38"/><circle cx="65.5" cy="87.5" r="1.25" fill="#1F2E38"/><circle cx="69.5" cy="87.5" r="1.25" fill="#1F2E38"/><circle cx="73.5" cy="87.5" r="1.25" fill="#1F2E38"/><circle cx="77.5" cy="87.5" r="1.25" fill="#1F2E38"/><circle cx="81.5" cy="87.5" r="1.25" fill="#1F2E38"/><circle cx="85.5" cy="87.5" r="1.25" fill="#1F2E38"/><circle cx="89.5" cy="87.5" r="1.25" fill="#1F2E38"/><circle cx="93.5" cy="87.5" r="1.25" fill="#1F2E38"/><circle cx="97.5" cy="87.5" r="1.25" fill="#1F2E38"/><circle cx="101.5" cy="87.5" r="1.25" fill="#1F2E38"/><circle cx="105.5" cy="87.5" r="1.25" fill="#1F2E38"/><circle cx="33.5" cy="91.5" r="1.25" fill="#1F2E38"/><circle cx="37.5" cy="91.5" r="1.25" fill="#1F2E38"/><circle cx="41.5" cy="91.5" r="1.25" fill="#1F2E38"/><circle cx="45.5" cy="91.5" r="1.25" fill="#1F2E38"/><circle cx="49.5" cy="91.5" r="1.25" fill="#1F2E38"/><circle cx="53.5" cy="91.5" r="1.25" fill="#1F2E38"/><circle cx="57.5" cy="91.5" r="1.25" fill="#1F2E38"/><circle cx="61.5" cy="91.5" r="1.25" fill="#1F2E38"/><circle cx="65.5" cy="91.5" r="1.25" fill="#1F2E38"/><circle cx="69.5" cy="91.5" r="1.25" fill="#1F2E38"/><circle cx="73.5" cy="91.5" r="1.25" fill="#1F2E38"/><circle cx="77.5" cy="91.5" r="1.25" fill="#1F2E38"/><circle cx="81.5" cy="91.5" r="1.25" fill="#1F2E38"/><circle cx="85.5" cy="91.5" r="1.25" fill="#1F2E38"/><circle cx="89.5" cy="91.5" r="1.25" fill="#1F2E38"/><circle cx="93.5" cy="91.5" r="1.25" fill="#1F2E38"/><circle cx="97.5" cy="91.5" r="1.25" fill="#1F2E38"/><circle cx="101.5" cy="91.5" r="1.25" fill="#1F2E38"/><circle cx="105.5" cy="91.5" r="1.25" fill="#1F2E38"/></g><circle cx="52" cy="52" r="8.5" fill="#FFFFFF"/><circle class="pupil" cx="53" cy="53" r="3.4" fill="#0E1A22"/><circle cx="84" cy="52" r="8.5" fill="#FFFFFF"/><circle class="pupil" cx="85" cy="53" r="3.4" fill="#0E1A22"/><circle cx="60" cy="77" r="3.4" fill="#0E1A22"/><circle cx="76" cy="77" r="3.4" fill="#0E1A22"/></svg>
